<svg id="visual" viewBox="0 0 960 540" width="960" height="540" xmlns="http://www.w3.org/2000/svg" xmlns:xlink="http://www.w3.org/1999/xlink" version="1.1"><rect width="960" height="540" fill="#ffffff"></rect><g><g transform="translate(953 240)"><path d="M0 -36.6L31.7 -18.3L31.7 18.3L0 36.6L-31.7 18.3L-31.7 -18.3Z" fill="none" stroke="#2a9df4" stroke-width="3"></path></g><g transform="translate(535 479)"><path d="M0 -28L24.2 -14L24.2 14L0 28L-24.2 14L-24.2 -14Z" fill="none" stroke="#2a9df4" stroke-width="3"></path></g><g transform="translate(522 359)"><path d="M0 -21L18.2 -10.5L18.2 10.5L0 21L-18.2 10.5L-18.2 -10.5Z" fill="none" stroke="#2a9df4" stroke-width="3"></path></g><g transform="translate(182 496)"><path d="M0 -20L17.3 -10L17.3 10L0 20L-17.3 10L-17.3 -10Z" fill="none" stroke="#2a9df4" stroke-width="3"></path></g><g transform="translate(179 219)"><path d="M0 -30L26 -15L26 15L0 30L-26 15L-26 -15Z" fill="none" stroke="#2a9df4" stroke-width="3"></path></g><g transform="translate(348 269)"><path d="M0 -28L24.2 -14L24.2 14L0 28L-24.2 14L-24.2 -14Z" fill="none" stroke="#2a9df4" stroke-width="3"></path></g><g transform="translate(161 336)"><path d="M0 -18L15.6 -9L15.6 9L0 18L-15.6 9L-15.6 -9Z" fill="none" stroke="#2a9df4" stroke-width="3"></path></g><g transform="translate(471 111)"><path d="M0 -28L24.2 -14L24.2 14L0 28L-24.2 14L-24.2 -14Z" fill="none" stroke="#2a9df4" stroke-width="3"></path></g><g transform="translate(31 300)"><path d="M0 -35L30.3 -17.5L30.3 17.5L0 35L-30.3 17.5L-30.3 -17.5Z" fill="none" stroke="#2a9df4" stroke-width="3"></path></g><g transform="translate(127 51)"><path d="M0 -31L26.8 -15.5L26.8 15.5L0 31L-26.8 15.5L-26.8 -15.5Z" fill="none" stroke="#2a9df4" stroke-width="3"></path></g><g transform="translate(797 497)"><path d="M0 -21L18.2 -10.5L18.2 10.5L0 21L-18.2 10.5L-18.2 -10.5Z" fill="none" stroke="#2a9df4" stroke-width="3"></path></g><g transform="translate(655 246)"><path d="M0 -30L26 -15L26 15L0 30L-26 15L-26 -15Z" fill="none" stroke="#2a9df4" stroke-width="3"></path></g><g transform="translate(738 8)"><path d="M0 -32L27.7 -16L27.7 16L0 32L-27.7 16L-27.7 -16Z" fill="none" stroke="#2a9df4" stroke-width="3"></path></g><g transform="translate(423 528)"><path d="M0 -23L19.9 -11.5L19.9 11.5L0 23L-19.9 11.5L-19.9 -11.5Z" fill="none" stroke="#2a9df4" stroke-width="3"></path></g><g transform="translate(247 139)"><path d="M0 -32L27.7 -16L27.7 16L0 32L-27.7 16L-27.7 -16Z" fill="none" stroke="#2a9df4" stroke-width="3"></path></g><g transform="translate(672 140)"><path d="M0 -25L21.7 -12.5L21.7 12.5L0 25L-21.7 12.5L-21.7 -12.5Z" fill="none" stroke="#2a9df4" stroke-width="3"></path></g><g transform="translate(804 391)"><path d="M0 -30L26 -15L26 15L0 30L-26 15L-26 -15Z" fill="none" stroke="#2a9df4" stroke-width="3"></path></g><g transform="translate(529 162)"><path d="M0 -18L15.6 -9L15.6 9L0 18L-15.6 9L-15.6 -9Z" fill="none" stroke="#2a9df4" stroke-width="3"></path></g><g transform="translate(608 52)"><path d="M0 -30L26 -15L26 15L0 30L-26 15L-26 -15Z" fill="none" stroke="#2a9df4" stroke-width="3"></path></g><g transform="translate(229 280)"><path d="M0 -18L15.6 -9L15.6 9L0 18L-15.6 9L-15.6 -9Z" fill="none" stroke="#2a9df4" stroke-width="3"></path></g><g transform="translate(942 358)"><path d="M0 -35L30.3 -17.5L30.3 17.5L0 35L-30.3 17.5L-30.3 -17.5Z" fill="none" stroke="#2a9df4" stroke-width="3"></path></g><g transform="translate(395 340)"><path d="M0 -22L19.1 -11L19.1 11L0 22L-19.1 11L-19.1 -11Z" fill="none" stroke="#2a9df4" stroke-width="3"></path></g><g transform="translate(813 116)"><path d="M0 -32L27.7 -16L27.7 16L0 32L-27.7 16L-27.7 -16Z" fill="none" stroke="#2a9df4" stroke-width="3"></path></g><g transform="translate(895 110)"><path d="M0 -33L28.6 -16.5L28.6 16.5L0 33L-28.6 16.5L-28.6 -16.5Z" fill="none" stroke="#2a9df4" stroke-width="3"></path></g><g transform="translate(5 210)"><path d="M0 -32L27.7 -16L27.7 16L0 32L-27.7 16L-27.7 -16Z" fill="none" stroke="#2a9df4" stroke-width="3"></path></g><g transform="translate(383 76)"><path d="M0 -32L27.7 -16L27.7 16L0 32L-27.7 16L-27.7 -16Z" fill="none" stroke="#2a9df4" stroke-width="3"></path></g><g transform="translate(834 204)"><path d="M0 -19L16.5 -9.5L16.5 9.5L0 19L-16.5 9.5L-16.5 -9.5Z" fill="none" stroke="#2a9df4" stroke-width="3"></path></g><g transform="translate(504 264)"><path d="M0 -23L19.9 -11.5L19.9 11.5L0 23L-19.9 11.5L-19.9 -11.5Z" fill="none" stroke="#2a9df4" stroke-width="3"></path></g><g transform="translate(600 309)"><path d="M0 -27L23.4 -13.5L23.4 13.5L0 27L-23.4 13.5L-23.4 -13.5Z" fill="none" stroke="#2a9df4" stroke-width="3"></path></g><g transform="translate(431 449)"><path d="M0 -35L30.3 -17.5L30.3 17.5L0 35L-30.3 17.5L-30.3 -17.5Z" fill="none" stroke="#2a9df4" stroke-width="3"></path></g><g transform="translate(273 395)"><path d="M0 -20L17.3 -10L17.3 10L0 20L-17.3 10L-17.3 -10Z" fill="none" stroke="#2a9df4" stroke-width="3"></path></g><g transform="translate(274 535)"><path d="M0 -21L18.2 -10.5L18.2 10.5L0 21L-18.2 10.5L-18.2 -10.5Z" fill="none" stroke="#2a9df4" stroke-width="3"></path></g><g transform="translate(637 499)"><path d="M0 -33L28.6 -16.5L28.6 16.5L0 33L-28.6 16.5L-28.6 -16.5Z" fill="none" stroke="#2a9df4" stroke-width="3"></path></g><g transform="translate(846 28)"><path d="M0 -31L26.8 -15.5L26.8 15.5L0 31L-26.8 15.5L-26.8 -15.5Z" fill="none" stroke="#2a9df4" stroke-width="3"></path></g><g transform="translate(333 182)"><path d="M0 -28L24.2 -14L24.2 14L0 28L-24.2 14L-24.2 -14Z" fill="none" stroke="#2a9df4" stroke-width="3"></path></g><g transform="translate(330 9)"><path d="M0 -30L26 -15L26 15L0 30L-26 15L-26 -15Z" fill="none" stroke="#2a9df4" stroke-width="3"></path></g><g transform="translate(93 466)"><path d="M0 -29L25.1 -14.5L25.1 14.5L0 29L-25.1 14.5L-25.1 -14.5Z" fill="none" stroke="#2a9df4" stroke-width="3"></path></g><g transform="translate(11 509)"><path d="M0 -32L27.7 -16L27.7 16L0 32L-27.7 16L-27.7 -16Z" fill="none" stroke="#2a9df4" stroke-width="3"></path></g><g transform="translate(726 352)"><path d="M0 -33L28.6 -16.5L28.6 16.5L0 33L-28.6 16.5L-28.6 -16.5Z" fill="none" stroke="#2a9df4" stroke-width="3"></path></g><g transform="translate(98 220)"><path d="M0 -22L19.1 -11L19.1 11L0 22L-19.1 11L-19.1 -11Z" fill="none" stroke="#2a9df4" stroke-width="3"></path></g><g transform="translate(940 41)"><path d="M0 -21L18.2 -10.5L18.2 10.5L0 21L-18.2 10.5L-18.2 -10.5Z" fill="none" stroke="#2a9df4" stroke-width="3"></path></g><g transform="translate(425 198)"><path d="M0 -25L21.7 -12.5L21.7 12.5L0 25L-21.7 12.5L-21.7 -12.5Z" fill="none" stroke="#2a9df4" stroke-width="3"></path></g><g transform="translate(106 388)"><path d="M0 -18L15.6 -9L15.6 9L0 18L-15.6 9L-15.6 -9Z" fill="none" stroke="#2a9df4" stroke-width="3"></path></g><g transform="translate(37 39)"><path d="M0 -21L18.2 -10.5L18.2 10.5L0 21L-18.2 10.5L-18.2 -10.5Z" fill="none" stroke="#2a9df4" stroke-width="3"></path></g><g transform="translate(899 469)"><path d="M0 -29L25.1 -14.5L25.1 14.5L0 29L-25.1 14.5L-25.1 -14.5Z" fill="none" stroke="#2a9df4" stroke-width="3"></path></g></g></svg>